<svg xmlns="http://www.w3.org/2000/svg" width="24" height="24" fill="none"><path fill="#3246F5" d="m10.323 5.659 4.092 6.784c.025.041.07.066.117.066h2.698a.137.137 0 0 0 .118-.208l-5.591-9.234a.14.14 0 0 0-.118-.066h-5.08a.14.14 0 0 0-.12.069l-5.421 9.365a.14.14 0 0 0 0 .137l1.342 2.314a.138.138 0 0 0 .237 0l5.462-9.22a.14.14 0 0 1 .117-.067l2.029-.007a.14.14 0 0 1 .118.066"></path><path fill="#3246F5" d="M23 12.507v.002l-.662 1.138-2.154 3.71h-.058l-10.37.062a.138.138 0 0 1-.118-.208l1.409-2.325a.14.14 0 0 1 .117-.066l7.387.013a.14.14 0 0 0 .12-.068l1.258-2.175a.14.14 0 0 0 0-.138l-5.396-9.246a.137.137 0 0 1 .12-.206h2.762a.13.13 0 0 1 .12.067z"></path><path fill="#3246F5" d="m18.878 19.617-1.343 2.315a.14.14 0 0 1-.119.068H6.564a.14.14 0 0 1-.12-.068l-2.43-4.19-.186-.325 5.325-8.791a.138.138 0 0 1 .233-.004l1.429 2.196c.028.044.03.101 0 .147l-3.927 6.32a.14.14 0 0 0-.004.139l.992 1.825c.024.045.07.072.12.072l10.762.092c.105 0 .17.115.118.206z"></path></svg>