<?xml version="1.0" encoding="UTF-8"?>
<svg version="1.1" xmlns="http://www.w3.org/2000/svg" width="444" height="106">
<path d="M0 0 C7.54643613 5.22445579 13.17480564 12.21051673 15.41015625 21.1796875 C16.93063205 30.3025423 16.20618753 39.14985056 11.40234375 47.1953125 C5.22523379 55.76587341 -2.78590535 60.81219722 -13.15625 62.78125 C-21.13284355 63.76466564 -28.51817471 61.8405379 -35.46875 57.90625 C-43.38922579 51.64354822 -49.92169363 44.1515235 -51.15625 33.78125 C-51.90290831 24.82135029 -50.37270751 16.34268786 -45.03125 8.96875 C-33.74666878 -4.28352081 -15.52697747 -8.7761177 0 0 Z " fill="#FFFFFF" transform="translate(73.15625,26.21875)"/>
<path d="M0 0 C1.98 0 3.96 0 6 0 C7.3673553 2.73471061 7.13473945 4.91739916 7.14526367 7.97851562 C7.15164352 9.23321655 7.15802338 10.48791748 7.16459656 11.78063965 C7.166125 13.15584271 7.16723909 14.53104628 7.16796875 15.90625 C7.17118067 17.3110762 7.17454469 18.71590205 7.17805481 20.12072754 C7.18404635 23.06633276 7.18589464 26.01190864 7.18530273 28.95751953 C7.185201 32.73736416 7.19886487 36.51702143 7.21607494 40.29682159 C7.22717586 43.19810862 7.22922255 46.09935003 7.22869301 49.00065613 C7.22987556 50.39455309 7.23431271 51.78845114 7.24202538 53.18232727 C7.25178824 55.12868851 7.24769261 57.0751045 7.24291992 59.02148438 C7.24434494 60.13019897 7.24576996 61.23891357 7.24723816 62.38122559 C7 65 7 65 5 67 C0.44444444 66.44444444 0.44444444 66.44444444 -1 65 C-1.09925594 63.04704817 -1.12799413 61.09048174 -1.12939453 59.13500977 C-1.13254669 57.88023331 -1.13569885 56.62545685 -1.13894653 55.33265686 C-1.13715656 53.95223964 -1.13510556 52.57182273 -1.1328125 51.19140625 C-1.13348565 49.78515099 -1.13445578 48.37889585 -1.13571167 46.97264099 C-1.13718858 44.02105607 -1.13503463 41.06950134 -1.13037109 38.11791992 C-1.12467902 34.33025229 -1.12794952 30.54265559 -1.13394356 26.75499058 C-1.13755381 23.84941573 -1.13640835 20.94385775 -1.13381577 18.03828239 C-1.13314751 16.64160084 -1.13397139 15.24491777 -1.13629532 13.84823799 C-1.13882882 11.89695387 -1.13428411 9.9456644 -1.12939453 7.99438477 C-1.12859894 6.88265396 -1.12780334 5.77092316 -1.12698364 4.62550354 C-1 2 -1 2 0 0 Z " fill="#FFFFFF" transform="translate(264,22)"/>
<path d="M0 0 C1.4540625 0.0309375 1.4540625 0.0309375 2.9375 0.0625 C4.21649046 2.62048092 4.07146991 4.44276857 4.08276367 7.30664062 C4.09233345 8.94844299 4.09233345 8.94844299 4.10209656 10.62341309 C4.10320938 11.80987427 4.1043222 12.99633545 4.10546875 14.21875 C4.10879715 15.43195923 4.11212555 16.64516846 4.11555481 17.8951416 C4.12062476 20.46410746 4.12296311 23.03307992 4.12280273 25.60205078 C4.12499085 29.54600788 4.14315065 33.48968613 4.16210938 37.43359375 C4.16504287 39.92447821 4.16702796 42.415364 4.16796875 44.90625 C4.17515427 46.09271118 4.18233978 47.27917236 4.18974304 48.50158691 C4.18666641 49.59612183 4.18358978 50.69065674 4.18041992 51.81835938 C4.18184494 52.78495483 4.18326996 53.75155029 4.18473816 54.74743652 C3.9375 57.0625 3.9375 57.0625 1.9375 59.0625 C-0.625 59.25 -0.625 59.25 -3.0625 59.0625 C-4.7807309 57.3442691 -4.19004321 55.07652251 -4.19189453 52.73242188 C-4.19504669 51.59454224 -4.19819885 50.4566626 -4.20144653 49.28430176 C-4.1994223 48.04579468 -4.19739807 46.8072876 -4.1953125 45.53125 C-4.19626923 44.26986206 -4.19722595 43.00847412 -4.19821167 41.7088623 C-4.19889375 39.03552862 -4.19753529 36.36228563 -4.19287109 33.68896484 C-4.18717381 30.25543309 -4.19045301 26.8219795 -4.19644356 23.38845062 C-4.20091762 20.12354757 -4.19778883 16.85865407 -4.1953125 13.59375 C-4.19733673 12.35524292 -4.19936096 11.11673584 -4.20144653 9.84069824 C-4.19829437 8.7028186 -4.19514221 7.56493896 -4.19189453 6.39257812 C-4.19109894 5.38521606 -4.19030334 4.377854 -4.18948364 3.33996582 C-3.99305375 -0.18302621 -3.60543747 0.07358036 0 0 Z " fill="#FFFFFF" transform="translate(350.0625,25.9375)"/>
<path d="M0 0 C2.5 0.125 2.5 0.125 3.5 1.125 C3.59935148 3.14450209 3.62799508 5.16750915 3.62939453 7.18945312 C3.63254669 8.48749878 3.63569885 9.78554443 3.63894653 11.1229248 C3.63715675 12.55070021 3.6351058 13.97847531 3.6328125 15.40625 C3.63348558 16.85974138 3.63445564 18.31323264 3.63571167 19.76672363 C3.63718846 22.81666127 3.6350347 25.86656966 3.63037109 28.91650391 C3.6246738 32.83430559 3.62795291 36.75203878 3.63394356 40.66983795 C3.63754969 43.67230754 3.63641035 46.67476077 3.63381577 49.67723083 C3.63314664 51.12218738 3.63397442 52.56714539 3.63629532 54.01210022 C3.63882265 56.02824883 3.63429052 58.04440262 3.62939453 60.06054688 C3.62859894 61.21002808 3.62780334 62.35950928 3.62698364 63.54382324 C3.5 66.125 3.5 66.125 2.5 67.125 C0 67.25 0 67.25 -2.5 67.125 C-4.31415883 65.31084117 -3.62770573 62.50054299 -3.62939453 60.06054688 C-3.63254669 58.76250122 -3.63569885 57.46445557 -3.63894653 56.1270752 C-3.63715675 54.69929979 -3.6351058 53.27152469 -3.6328125 51.84375 C-3.63348558 50.39025862 -3.63445564 48.93676736 -3.63571167 47.48327637 C-3.63718846 44.43333873 -3.6350347 41.38343034 -3.63037109 38.33349609 C-3.6246738 34.41569441 -3.62795291 30.49796122 -3.63394356 26.58016205 C-3.63754969 23.57769246 -3.63641035 20.57523923 -3.63381577 17.57276917 C-3.63314664 16.12781262 -3.63397442 14.68285461 -3.63629532 13.23789978 C-3.63882265 11.22175117 -3.63429052 9.20559738 -3.62939453 7.18945312 C-3.62859894 6.03997192 -3.62780334 4.89049072 -3.62698364 3.70617676 C-3.45852326 0.28190878 -3.41705381 0.17085269 0 0 Z " fill="#FFFFFF" transform="translate(377.5,21.875)"/>
<path d="M0 0 C2.5 0.125 2.5 0.125 3.5 1.125 C3.59935148 3.14450209 3.62799508 5.16750915 3.62939453 7.18945312 C3.63254669 8.48749878 3.63569885 9.78554443 3.63894653 11.1229248 C3.63715675 12.55070021 3.6351058 13.97847531 3.6328125 15.40625 C3.63348558 16.85974138 3.63445564 18.31323264 3.63571167 19.76672363 C3.63718846 22.81666127 3.6350347 25.86656966 3.63037109 28.91650391 C3.6246738 32.83430559 3.62795291 36.75203878 3.63394356 40.66983795 C3.63754969 43.67230754 3.63641035 46.67476077 3.63381577 49.67723083 C3.63314664 51.12218738 3.63397442 52.56714539 3.63629532 54.01210022 C3.63882265 56.02824883 3.63429052 58.04440262 3.62939453 60.06054688 C3.62859894 61.21002808 3.62780334 62.35950928 3.62698364 63.54382324 C3.5 66.125 3.5 66.125 2.5 67.125 C0 67.25 0 67.25 -2.5 67.125 C-4.31415883 65.31084117 -3.62770573 62.50054299 -3.62939453 60.06054688 C-3.63254669 58.76250122 -3.63569885 57.46445557 -3.63894653 56.1270752 C-3.63715675 54.69929979 -3.6351058 53.27152469 -3.6328125 51.84375 C-3.63348558 50.39025862 -3.63445564 48.93676736 -3.63571167 47.48327637 C-3.63718846 44.43333873 -3.6350347 41.38343034 -3.63037109 38.33349609 C-3.6246738 34.41569441 -3.62795291 30.49796122 -3.63394356 26.58016205 C-3.63754969 23.57769246 -3.63641035 20.57523923 -3.63381577 17.57276917 C-3.63314664 16.12781262 -3.63397442 14.68285461 -3.63629532 13.23789978 C-3.63882265 11.22175117 -3.63429052 9.20559738 -3.62939453 7.18945312 C-3.62859894 6.03997192 -3.62780334 4.89049072 -3.62698364 3.70617676 C-3.45852326 0.28190878 -3.41705381 0.17085269 0 0 Z " fill="#FFFFFF" transform="translate(308.5,21.875)"/>
<path d="M0 0 C2.5 0.125 2.5 0.125 3.5 1.125 C3.59935148 3.14450209 3.62799508 5.16750915 3.62939453 7.18945312 C3.63254669 8.48749878 3.63569885 9.78554443 3.63894653 11.1229248 C3.63715675 12.55070021 3.6351058 13.97847531 3.6328125 15.40625 C3.63348558 16.85974138 3.63445564 18.31323264 3.63571167 19.76672363 C3.63718846 22.81666127 3.6350347 25.86656966 3.63037109 28.91650391 C3.6246738 32.83430559 3.62795291 36.75203878 3.63394356 40.66983795 C3.63754969 43.67230754 3.63641035 46.67476077 3.63381577 49.67723083 C3.63314664 51.12218738 3.63397442 52.56714539 3.63629532 54.01210022 C3.63882265 56.02824883 3.63429052 58.04440262 3.62939453 60.06054688 C3.62859894 61.21002808 3.62780334 62.35950928 3.62698364 63.54382324 C3.5 66.125 3.5 66.125 2.5 67.125 C0 67.25 0 67.25 -2.5 67.125 C-4.31415883 65.31084117 -3.62770573 62.50054299 -3.62939453 60.06054688 C-3.63254669 58.76250122 -3.63569885 57.46445557 -3.63894653 56.1270752 C-3.63715675 54.69929979 -3.6351058 53.27152469 -3.6328125 51.84375 C-3.63348558 50.39025862 -3.63445564 48.93676736 -3.63571167 47.48327637 C-3.63718846 44.43333873 -3.6350347 41.38343034 -3.63037109 38.33349609 C-3.6246738 34.41569441 -3.62795291 30.49796122 -3.63394356 26.58016205 C-3.63754969 23.57769246 -3.63641035 20.57523923 -3.63381577 17.57276917 C-3.63314664 16.12781262 -3.63397442 14.68285461 -3.63629532 13.23789978 C-3.63882265 11.22175117 -3.63429052 9.20559738 -3.62939453 7.18945312 C-3.62859894 6.03997192 -3.62780334 4.89049072 -3.62698364 3.70617676 C-3.45852326 0.28190878 -3.41705381 0.17085269 0 0 Z " fill="#FFFFFF" transform="translate(239.5,21.875)"/>
<path d="M0 0 C2.5 0.125 2.5 0.125 3.5 1.125 C3.59935148 3.14450209 3.62799508 5.16750915 3.62939453 7.18945312 C3.63254669 8.48749878 3.63569885 9.78554443 3.63894653 11.1229248 C3.63715675 12.55070021 3.6351058 13.97847531 3.6328125 15.40625 C3.63348558 16.85974138 3.63445564 18.31323264 3.63571167 19.76672363 C3.63718846 22.81666127 3.6350347 25.86656966 3.63037109 28.91650391 C3.6246738 32.83430559 3.62795291 36.75203878 3.63394356 40.66983795 C3.63754969 43.67230754 3.63641035 46.67476077 3.63381577 49.67723083 C3.63314664 51.12218738 3.63397442 52.56714539 3.63629532 54.01210022 C3.63882265 56.02824883 3.63429052 58.04440262 3.62939453 60.06054688 C3.62859894 61.21002808 3.62780334 62.35950928 3.62698364 63.54382324 C3.5 66.125 3.5 66.125 2.5 67.125 C0 67.25 0 67.25 -2.5 67.125 C-4.31415883 65.31084117 -3.62770573 62.50054299 -3.62939453 60.06054688 C-3.63254669 58.76250122 -3.63569885 57.46445557 -3.63894653 56.1270752 C-3.63715675 54.69929979 -3.6351058 53.27152469 -3.6328125 51.84375 C-3.63348558 50.39025862 -3.63445564 48.93676736 -3.63571167 47.48327637 C-3.63718846 44.43333873 -3.6350347 41.38343034 -3.63037109 38.33349609 C-3.6246738 34.41569441 -3.62795291 30.49796122 -3.63394356 26.58016205 C-3.63754969 23.57769246 -3.63641035 20.57523923 -3.63381577 17.57276917 C-3.63314664 16.12781262 -3.63397442 14.68285461 -3.63629532 13.23789978 C-3.63882265 11.22175117 -3.63429052 9.20559738 -3.62939453 7.18945312 C-3.62859894 6.03997192 -3.62780334 4.89049072 -3.62698364 3.70617676 C-3.45852326 0.28190878 -3.41705381 0.17085269 0 0 Z " fill="#FFFFFF" transform="translate(156.5,21.875)"/>
<path d="M0 0 C1.4540625 0.0309375 1.4540625 0.0309375 2.9375 0.0625 C2.96062851 7.60748233 2.97841769 15.15246101 2.98931217 22.69747066 C2.99453989 26.20058885 3.0016355 29.70368285 3.01293945 33.20678711 C3.02584206 37.23030841 3.03072912 41.25380414 3.03515625 45.27734375 C3.04031754 46.54086166 3.04547882 47.80437958 3.05079651 49.10618591 C3.05087204 50.267314 3.05094757 51.42844208 3.05102539 52.62475586 C3.053246 53.65289902 3.05546661 54.68104218 3.05775452 55.74034119 C2.9375 58.0625 2.9375 58.0625 1.9375 59.0625 C-0.5625 59.1875 -0.5625 59.1875 -3.0625 59.0625 C-4.7807309 57.3442691 -4.19004321 55.07652251 -4.19189453 52.73242188 C-4.19504669 51.59454224 -4.19819885 50.4566626 -4.20144653 49.28430176 C-4.1994223 48.04579468 -4.19739807 46.8072876 -4.1953125 45.53125 C-4.19626923 44.26986206 -4.19722595 43.00847412 -4.19821167 41.7088623 C-4.19889375 39.03552862 -4.19753529 36.36228563 -4.19287109 33.68896484 C-4.18717381 30.25543309 -4.19045301 26.8219795 -4.19644356 23.38845062 C-4.20091762 20.12354757 -4.19778883 16.85865407 -4.1953125 13.59375 C-4.19733673 12.35524292 -4.19936096 11.11673584 -4.20144653 9.84069824 C-4.19829437 8.7028186 -4.19514221 7.56493896 -4.19189453 6.39257812 C-4.19109894 5.38521606 -4.19030334 4.377854 -4.18948364 3.33996582 C-3.99305375 -0.18302621 -3.60543747 0.07358036 0 0 Z " fill="#FFFFFF" transform="translate(226.0625,25.9375)"/>
<path d="M0 0 C1.99954746 -0.04254356 4.00041636 -0.04080783 6 0 C7.6140925 1.6140925 7.12734318 3.36476408 7.12939453 5.59570312 C7.13254669 6.57341675 7.13569885 7.55113037 7.13894653 8.55847168 C7.1369223 9.62198853 7.13489807 10.68550537 7.1328125 11.78125 C7.13376923 12.86506958 7.13472595 13.94888916 7.13571167 15.06555176 C7.13639365 17.3622239 7.13453811 19.65889795 7.13037109 21.95556641 C7.12502312 25.48474428 7.1303155 29.01379487 7.13671875 32.54296875 C7.13605797 34.76822945 7.13477682 36.99349007 7.1328125 39.21875 C7.13483673 40.28226685 7.13686096 41.34578369 7.13894653 42.44152832 C7.13421829 43.90809875 7.13421829 43.90809875 7.12939453 45.40429688 C7.12820114 46.70216125 7.12820114 46.70216125 7.12698364 48.02624512 C7 50 7 50 6 51 C3.5 51.125 3.5 51.125 1 51 C0 50 0 50 -0.12025452 47.98155212 C-0.11803391 47.09552811 -0.11581329 46.20950409 -0.11352539 45.29663086 C-0.11344986 44.29566879 -0.11337433 43.29470673 -0.11329651 42.26341248 C-0.10813522 41.1748848 -0.10297394 40.08635712 -0.09765625 38.96484375 C-0.0962413 37.85645645 -0.09482635 36.74806915 -0.09336853 35.60609436 C-0.08775033 32.04986931 -0.07519475 28.49370617 -0.0625 24.9375 C-0.05748734 22.53320403 -0.05292403 20.12890708 -0.04882812 17.72460938 C-0.03777499 11.81638496 -0.02101917 5.9081969 0 0 Z " fill="#FFFFFF" transform="translate(319,30)"/>
<path d="M0 0 C1.4540625 0.0309375 1.4540625 0.0309375 2.9375 0.0625 C2.96276787 7.16494999 2.98033201 14.26738848 2.99243164 21.36987305 C2.99747349 23.78817172 3.00430678 26.20646733 3.01293945 28.62475586 C3.02501157 32.09229283 3.03072963 35.55978966 3.03515625 39.02734375 C3.04031754 40.11587143 3.04547882 41.20439911 3.05079651 42.32591248 C3.05087204 43.32687454 3.05094757 44.32783661 3.05102539 45.35913086 C3.053246 46.24515488 3.05546661 47.13117889 3.05775452 48.04405212 C2.9375 50.0625 2.9375 50.0625 1.9375 51.0625 C-0.5625 51.1875 -0.5625 51.1875 -3.0625 51.0625 C-4.6765925 49.4484075 -4.18984318 47.69773592 -4.19189453 45.46679688 C-4.19504669 44.48908325 -4.19819885 43.51136963 -4.20144653 42.50402832 C-4.1994223 41.44051147 -4.19739807 40.37699463 -4.1953125 39.28125 C-4.19626923 38.19743042 -4.19722595 37.11361084 -4.19821167 35.99694824 C-4.19889365 33.7002761 -4.19703811 31.40360205 -4.19287109 29.10693359 C-4.18752312 25.57775572 -4.1928155 22.04870513 -4.19921875 18.51953125 C-4.19855797 16.29427055 -4.19727682 14.06900993 -4.1953125 11.84375 C-4.19733673 10.78023315 -4.19936096 9.71671631 -4.20144653 8.62097168 C-4.19829437 7.64325806 -4.19514221 6.66554443 -4.19189453 5.65820312 C-4.19109894 4.79296021 -4.19030334 3.92771729 -4.18948364 3.03625488 C-3.97766013 -0.25619819 -3.36708322 0.06871598 0 0 Z " fill="#FFFFFF" transform="translate(295.0625,29.9375)"/>
<path d="M0 0 C1.4540625 0.0309375 1.4540625 0.0309375 2.9375 0.0625 C4.59452967 3.37655935 4.07912705 7.07628048 4.0703125 10.71875 C4.07126923 11.57682251 4.07222595 12.43489502 4.07321167 13.31896973 C4.07389272 15.13468499 4.07204367 16.95040268 4.06787109 18.76611328 C4.06252178 21.55116221 4.06781861 24.33604986 4.07421875 27.12109375 C4.07355796 28.88281286 4.07227676 30.64453186 4.0703125 32.40625 C4.07233673 33.24273071 4.07436096 34.07921143 4.07644653 34.94104004 C4.05245917 40.83258166 4.05245917 40.83258166 2.9375 43.0625 C0.93795254 43.10504356 -1.06291636 43.10330783 -3.0625 43.0625 C-4.98507175 41.13992825 -4.19158424 38.28164892 -4.20144653 35.72375488 C-4.1994223 34.83522827 -4.19739807 33.94670166 -4.1953125 33.03125 C-4.19626923 32.12499878 -4.19722595 31.21874756 -4.19821167 30.28503418 C-4.19889353 28.36498953 -4.19703882 26.44494259 -4.19287109 24.52490234 C-4.18752292 21.57514296 -4.19281588 18.62553586 -4.19921875 15.67578125 C-4.19855797 13.81510383 -4.19727681 11.9544265 -4.1953125 10.09375 C-4.19733673 9.20522339 -4.19936096 8.31669678 -4.20144653 7.40124512 C-4.17323845 0.08516813 -4.17323845 0.08516813 0 0 Z " fill="#FFFFFF" transform="translate(198.0625,33.9375)"/>
<path d="M0 0 C1.99954746 -0.04254356 4.00041636 -0.04080783 6 0 C7.92257175 1.92257175 7.12908424 4.78085108 7.13894653 7.33874512 C7.1369223 8.22727173 7.13489807 9.11579834 7.1328125 10.03125 C7.13376923 10.93750122 7.13472595 11.84375244 7.13571167 12.77746582 C7.13639353 14.69751047 7.13453882 16.61755741 7.13037109 18.53759766 C7.12502292 21.48735704 7.13031588 24.43696414 7.13671875 27.38671875 C7.13605797 29.24739617 7.13477681 31.1080735 7.1328125 32.96875 C7.13483673 33.85727661 7.13686096 34.74580322 7.13894653 35.66125488 C7.11494988 41.88505012 7.11494988 41.88505012 6 43 C4.00041636 43.04080783 1.99954746 43.04254356 0 43 C-1.28694982 39.13915054 -1.14287261 35.48766321 -1.1328125 31.46484375 C-1.13376923 30.63038223 -1.13472595 29.79592072 -1.13571167 28.93617249 C-1.1363918 27.17351201 -1.13454915 25.41084902 -1.13037109 23.64819336 C-1.12501375 20.94444178 -1.13032517 18.24085582 -1.13671875 15.53710938 C-1.13605807 13.82552047 -1.13477712 12.11393166 -1.1328125 10.40234375 C-1.13483673 9.59087387 -1.13686096 8.77940399 -1.13894653 7.94334412 C-1.11496425 2.22992849 -1.11496425 2.22992849 0 0 Z " fill="#FFFFFF" transform="translate(167,34)"/>
<path d="M0 0 C1.98 0 3.96 0 6 0 C6 14.19 6 28.38 6 43 C4.02 43 2.04 43 0 43 C-1.92257175 41.07742825 -1.12908424 38.21914892 -1.13894653 35.66125488 C-1.1369223 34.77272827 -1.13489807 33.88420166 -1.1328125 32.96875 C-1.13376923 32.06249878 -1.13472595 31.15624756 -1.13571167 30.22253418 C-1.13639353 28.30248953 -1.13453882 26.38244259 -1.13037109 24.46240234 C-1.12502292 21.51264296 -1.13031588 18.56303586 -1.13671875 15.61328125 C-1.13605797 13.75260383 -1.13477681 11.8919265 -1.1328125 10.03125 C-1.13483673 9.14272339 -1.13686096 8.25419678 -1.13894653 7.33874512 C-1.11494988 1.11494988 -1.11494988 1.11494988 0 0 Z " fill="#FFFFFF" transform="translate(140,34)"/>
<path d="M0 0 C3 0.125 3 0.125 4 1.125 C4.10082764 3.56160446 4.13972603 5.96924701 4.1328125 8.40625 C4.13376923 9.13493286 4.13472595 9.86361572 4.13571167 10.61437988 C4.13639335 12.1577971 4.13453988 13.70121717 4.13037109 15.24462891 C4.12502262 17.614974 4.13031642 19.98512959 4.13671875 22.35546875 C4.13605797 23.85156292 4.1347768 25.34765697 4.1328125 26.84375 C4.13483673 27.55728638 4.13686096 28.27082275 4.13894653 29.00598145 C4.11495191 34.01004809 4.11495191 34.01004809 3 35.125 C0 35.25 0 35.25 -3 35.125 C-4.70492881 33.42007119 -4.1280442 31.27965739 -4.13894653 29.00598145 C-4.1369223 28.29244507 -4.13489807 27.57890869 -4.1328125 26.84375 C-4.13376923 26.11506714 -4.13472595 25.38638428 -4.13571167 24.63562012 C-4.13639335 23.0922029 -4.13453988 21.54878283 -4.13037109 20.00537109 C-4.12502262 17.635026 -4.13031642 15.26487041 -4.13671875 12.89453125 C-4.13605797 11.39843708 -4.1347768 9.90234303 -4.1328125 8.40625 C-4.13483673 7.69271362 -4.13686096 6.97917725 -4.13894653 6.24401855 C-4.10982743 0.17124281 -4.10982743 0.17124281 0 0 Z " fill="#FFFFFF" transform="translate(184,37.875)"/>
<path d="M0 0 C1.99954746 -0.04254356 4.00041636 -0.04080783 6 0 C7.70492881 1.70492881 7.1280442 3.84534261 7.13894653 6.11901855 C7.1369223 6.83255493 7.13489807 7.54609131 7.1328125 8.28125 C7.13376923 9.00993286 7.13472595 9.73861572 7.13571167 10.48937988 C7.13639335 12.0327971 7.13453988 13.57621717 7.13037109 15.11962891 C7.12502262 17.489974 7.13031642 19.86012959 7.13671875 22.23046875 C7.13605797 23.72656292 7.1347768 25.22265697 7.1328125 26.71875 C7.13483673 27.43228638 7.13686096 28.14582275 7.13894653 28.88098145 C7.11495191 33.88504809 7.11495191 33.88504809 6 35 C3 35.125 3 35.125 0 35 C-1.67195977 33.32804023 -1.12785168 31.29109371 -1.13894653 29.05909729 C-1.1369223 28.37057175 -1.13489807 27.6820462 -1.1328125 26.97265625 C-1.13376923 26.26854111 -1.13472595 25.56442596 -1.13571167 24.838974 C-1.13639341 23.34683137 -1.13453952 21.85468579 -1.13037109 20.36254883 C-1.12503063 18.07561582 -1.1303121 15.78887992 -1.13671875 13.50195312 C-1.13605781 12.05468707 -1.13477632 10.60742113 -1.1328125 9.16015625 C-1.13483673 8.47365494 -1.13686096 7.78715363 -1.13894653 7.07984924 C-1.11495764 2.22991527 -1.11495764 2.22991527 0 0 Z " fill="#FFFFFF" transform="translate(402,38)"/>
<path d="M0 0 C1.4540625 0.0309375 1.4540625 0.0309375 2.9375 0.0625 C4.41462785 3.0167557 4.06739998 5.67510204 4.0703125 8.96875 C4.07126923 9.64925415 4.07222595 10.3297583 4.07321167 11.03088379 C4.07389231 12.46997164 4.07204607 13.90906257 4.06787109 15.34814453 C4.06252115 17.55378093 4.06781991 19.7592137 4.07421875 21.96484375 C4.07355795 23.36197962 4.07227674 24.75911536 4.0703125 26.15625 C4.06918457 27.43177734 4.06805664 28.70730469 4.06689453 30.02148438 C3.9375 33.0625 3.9375 33.0625 2.9375 35.0625 C0.93795254 35.10504356 -1.06291636 35.10330783 -3.0625 35.0625 C-4.76742881 33.35757119 -4.1905442 31.21715739 -4.20144653 28.94348145 C-4.1994223 28.22994507 -4.19739807 27.51640869 -4.1953125 26.78125 C-4.19626923 26.05256714 -4.19722595 25.32388428 -4.19821167 24.57312012 C-4.19889335 23.0297029 -4.19703988 21.48628283 -4.19287109 19.94287109 C-4.18752262 17.572526 -4.19281642 15.20237041 -4.19921875 12.83203125 C-4.19855797 11.33593708 -4.1972768 9.83984303 -4.1953125 8.34375 C-4.19733673 7.63021362 -4.19936096 6.91667725 -4.20144653 6.18151855 C-4.17221429 0.08514723 -4.17221429 0.08514723 0 0 Z " fill="#FFFFFF" transform="translate(281.0625,37.9375)"/>
<path d="M0 0 C1.26723437 2.53446873 1.12941328 4.32226954 1.1328125 7.15625 C1.13410156 8.17847656 1.13539063 9.20070313 1.13671875 10.25390625 C1.13285156 11.32511719 1.12898438 12.39632812 1.125 13.5 C1.12886719 14.57121094 1.13273437 15.64242187 1.13671875 16.74609375 C1.13542969 17.76832031 1.13414062 18.79054688 1.1328125 19.84375 C1.13168457 20.78412109 1.13055664 21.72449219 1.12939453 22.69335938 C1 25 1 25 0 27 C-1.99954746 27.04254356 -4.00041636 27.04080783 -6 27 C-7 26 -7 26 -7.11352539 23.49975586 C-7.10828857 22.41573486 -7.10305176 21.33171387 -7.09765625 20.21484375 C-7.09443359 19.04501953 -7.09121094 17.87519531 -7.08789062 16.66992188 C-7.07951172 15.43822266 -7.07113281 14.20652344 -7.0625 12.9375 C-7.05798828 11.70193359 -7.05347656 10.46636719 -7.04882812 9.19335938 C-7.03699608 6.12885883 -7.02051173 3.06445279 -7 0 C-4.30234372 -1.34882814 -2.84835666 -0.80338265 0 0 Z " fill="#FFFFFF" transform="translate(367,42)"/>
<path d="M0 0 C2.5625 0.25 2.5625 0.25 5 1 C6.26723437 3.53446873 6.12941328 5.32226954 6.1328125 8.15625 C6.13410156 9.17847656 6.13539063 10.20070313 6.13671875 11.25390625 C6.13285156 12.32511719 6.12898437 13.39632812 6.125 14.5 C6.12886719 15.57121094 6.13273438 16.64242187 6.13671875 17.74609375 C6.13542969 18.76832031 6.13414062 19.79054688 6.1328125 20.84375 C6.13168457 21.78412109 6.13055664 22.72449219 6.12939453 23.69335938 C6 26 6 26 5 28 C3.00045254 28.04254356 0.99958364 28.04080783 -1 28 C-3.58955157 25.41044843 -2.18558792 18.04822397 -2.1875 14.5625 C-2.19974609 13.39138672 -2.21199219 12.22027344 -2.22460938 11.01367188 C-2.22654297 9.89669922 -2.22847656 8.77972656 -2.23046875 7.62890625 C-2.23457764 6.59838135 -2.23868652 5.56785645 -2.24291992 4.50610352 C-2 2 -2 2 0 0 Z " fill="#FFFFFF" transform="translate(127,41)"/>
<path d="M0 0 C2.475 0.99 2.475 0.99 5 2 C5.02886751 6.14581887 5.04675327 10.29161216 5.0625 14.4375 C5.07087891 15.62150391 5.07925781 16.80550781 5.08789062 18.02539062 C5.09111328 19.15009766 5.09433594 20.27480469 5.09765625 21.43359375 C5.10289307 22.47572021 5.10812988 23.51784668 5.11352539 24.59155273 C5 27 5 27 4 28 C2.00041636 28.04080783 -0.00045254 28.04254356 -2 28 C-3.99778712 24.00442575 -3.22876505 18.95548005 -3.25 14.5625 C-3.270625 13.49966797 -3.29125 12.43683594 -3.3125 11.34179688 C-3.31765625 10.32279297 -3.3228125 9.30378906 -3.328125 8.25390625 C-3.3374707 7.31877197 -3.34681641 6.3836377 -3.35644531 5.42016602 C-2.94121423 2.60086076 -2.19698784 1.73982585 0 0 Z " fill="#FFFFFF" transform="translate(252,41)"/>
<path d="M0 0 C4.55555556 0.55555556 4.55555556 0.55555556 6 2 C6.09986975 4.84335048 6.13877881 7.65697163 6.125 10.5 C6.12886719 11.29792969 6.13273437 12.09585938 6.13671875 12.91796875 C6.12660767 18.87339233 6.12660767 18.87339233 5 20 C2 20.125 2 20.125 -1 20 C-3.10131385 17.89868615 -2.18514741 13.45853678 -2.1875 10.5625 C-2.19974609 9.77294922 -2.21199219 8.98339844 -2.22460938 8.16992188 C-2.22987279 6.11192565 -2.12206285 4.05437991 -2 2 C-1.34 1.34 -0.68 0.68 0 0 Z " fill="#FFFFFF" transform="translate(334,45)"/>
<path d="M0 0 C2.00720923 0.28674418 4.0085944 0.61866701 6 1 C6.02683987 3.97922593 6.04676037 6.95821295 6.0625 9.9375 C6.07087891 10.78763672 6.07925781 11.63777344 6.08789062 12.51367188 C6.09111328 13.32255859 6.09433594 14.13144531 6.09765625 14.96484375 C6.10289307 15.7137085 6.10812988 16.46257324 6.11352539 17.23413086 C6 19 6 19 5 20 C3.00041636 20.04080783 0.99954746 20.04254356 -1 20 C-1.02888514 16.85418577 -1.04675923 13.70840531 -1.0625 10.5625 C-1.07087891 9.66466797 -1.07925781 8.76683594 -1.08789062 7.84179688 C-1.09111328 6.98779297 -1.09433594 6.13378906 -1.09765625 5.25390625 C-1.10551147 4.06776733 -1.10551147 4.06776733 -1.11352539 2.85766602 C-1 1 -1 1 0 0 Z " fill="#FFFFFF" transform="translate(389,45)"/>
<path d="M0 0 C0 6.27 0 12.54 0 19 C-1.98 19 -3.96 19 -6 19 C-7 18 -7 18 -7.11352539 16.23413086 C-7.10828857 15.48526611 -7.10305176 14.73640137 -7.09765625 13.96484375 C-7.09443359 13.15595703 -7.09121094 12.34707031 -7.08789062 11.51367188 C-7.07951172 10.66353516 -7.07113281 9.81339844 -7.0625 8.9375 C-7.05798828 8.08349609 -7.05347656 7.22949219 -7.04882812 6.34960938 C-7.03700373 4.23304337 -7.01906769 2.11651315 -7 0 C-5 -1 -5 -1 0 0 Z " fill="#FFFFFF" transform="translate(215,46)"/>
<path d="M0 0 C4.55555556 0.55555556 4.55555556 0.55555556 6 2 C6.16796875 3.99609375 6.16796875 3.99609375 6.1875 6.4375 C6.20167969 7.24058594 6.21585938 8.04367188 6.23046875 8.87109375 C6 11 6 11 4 13 C-0.55555556 12.44444444 -0.55555556 12.44444444 -2 11 C-2.16796875 9.00390625 -2.16796875 9.00390625 -2.1875 6.5625 C-2.20167969 5.75941406 -2.21585937 4.95632812 -2.23046875 4.12890625 C-2 2 -2 2 0 0 Z " fill="#FFFFFF" transform="translate(113,49)"/>
<path d="M0 0 C4.55555556 0.55555556 4.55555556 0.55555556 6 2 C6.16796875 3.99609375 6.16796875 3.99609375 6.1875 6.4375 C6.20167969 7.24058594 6.21585937 8.04367188 6.23046875 8.87109375 C6 11 6 11 4 13 C-0.55555556 12.44444444 -0.55555556 12.44444444 -2 11 C-2.16796875 9.00390625 -2.16796875 9.00390625 -2.1875 6.5625 C-2.20167969 5.75941406 -2.21585937 4.95632812 -2.23046875 4.12890625 C-2 2 -2 2 0 0 Z " fill="#FFFFFF" transform="translate(417,49)"/>
</svg>
