<?xml version="1.0" encoding="UTF-8" standalone="no"?>
<!DOCTYPE svg PUBLIC "-//W3C//DTD SVG 20010904//EN"
              "http://www.w3.org/TR/2001/REC-SVG-20010904/DTD/svg10.dtd">

<svg xmlns="http://www.w3.org/2000/svg"
     width="1.48in" height="0.353333in"
     viewBox="0 0 444 106">
  <path id="Selection"
        fill="none" stroke="black" stroke-width="1"
        d="M 50.00,22.25
           C 52.62,22.10 54.32,21.93 57.00,22.25
             61.49,22.22 66.95,23.69 71.00,25.63
             102.17,40.63 90.36,91.02 54.00,88.91
             26.81,87.33 12.09,55.29 29.52,34.04
             34.84,27.54 41.99,24.25 50.00,22.25 Z
           M 154.59,23.04
           C 160.23,21.11 159.97,25.89 160.00,30.00
             160.00,30.00 160.00,81.00 160.00,81.00
             159.98,83.69 160.02,90.23 155.30,88.34
             152.66,87.29 153.02,83.31 153.00,81.00
             153.00,81.00 153.00,40.00 153.00,40.00
             153.00,35.18 151.79,26.91 154.59,23.04 Z
           M 237.59,23.04
           C 243.23,21.11 242.97,25.89 243.00,30.00
             243.00,30.00 243.00,81.00 243.00,81.00
             242.98,83.69 243.02,90.23 238.30,88.34
             235.66,87.29 236.02,83.31 236.00,81.00
             236.00,81.00 236.00,40.00 236.00,40.00
             236.00,35.18 234.79,26.91 237.59,23.04 Z
           M 264.73,23.00
           C 270.66,20.58 270.93,25.50 271.00,30.00
             271.00,30.00 271.00,79.00 271.00,79.00
             271.00,81.15 271.21,84.88 269.98,86.68
             269.28,87.71 268.28,88.37 267.00,88.37
             263.15,88.37 263.05,83.73 263.00,81.00
             263.00,81.00 263.00,40.00 263.00,40.00
             263.00,35.00 261.82,27.09 264.73,23.00 Z
           M 306.59,23.04
           C 312.23,21.11 311.97,25.89 312.00,30.00
             312.00,30.00 312.00,81.00 312.00,81.00
             311.98,83.69 312.02,90.23 307.30,88.34
             304.66,87.29 305.02,83.31 305.00,81.00
             305.00,81.00 305.00,40.00 305.00,40.00
             305.00,35.18 303.79,26.91 306.59,23.04 Z
           M 375.59,23.04
           C 381.23,21.11 380.97,25.89 381.00,30.00
             381.00,30.00 381.00,81.00 381.00,81.00
             380.98,83.69 381.02,90.23 376.30,88.34
             373.66,87.29 374.02,83.31 374.00,81.00
             374.00,81.00 374.00,40.00 374.00,40.00
             374.00,35.18 372.79,26.91 375.59,23.04 Z
           M 229.00,26.00
           C 229.00,26.00 229.00,49.00 229.00,49.00
             229.00,49.00 229.00,64.00 229.00,64.00
             229.00,64.00 229.00,78.00 229.00,78.00
             228.83,87.11 222.17,87.11 222.00,78.00
             222.00,78.00 222.00,35.00 222.00,35.00
             222.01,28.08 221.51,26.26 229.00,26.00 Z
           M 347.59,27.03
           C 353.64,24.62 353.93,29.33 354.00,34.00
             354.00,34.00 354.00,77.00 354.00,77.00
             353.94,80.11 353.14,86.21 348.31,84.34
             345.66,83.32 346.02,79.30 346.00,77.00
             346.00,77.00 346.00,42.00 346.00,42.00
             346.00,37.48 344.95,30.72 347.59,27.03 Z
           M 298.00,30.00
           C 298.00,30.00 298.00,50.00 298.00,50.00
             298.00,50.00 298.00,63.00 298.00,63.00
             298.00,65.84 298.35,76.76 297.40,78.69
             296.88,79.75 296.12,80.39 294.91,80.54
             290.70,81.07 291.02,75.68 291.00,73.00
             291.00,73.00 291.00,37.00 291.00,37.00
             291.12,30.81 291.95,30.21 298.00,30.00 Z
           M 319.00,30.00
           C 321.36,30.08 324.17,29.81 325.40,32.31
             326.31,34.16 326.00,42.48 326.00,45.00
             326.00,45.00 326.00,74.00 326.00,74.00
             325.95,76.66 325.58,82.05 321.30,80.34
             318.49,79.23 319.00,74.46 319.00,72.00
             319.00,72.00 319.00,50.00 319.00,50.00
             319.00,50.00 319.00,30.00 319.00,30.00 Z
           M 146.00,77.00
           C 144.02,76.93 141.40,77.14 140.02,75.40
             138.85,73.92 139.01,70.82 139.00,69.00
             139.00,69.00 139.00,41.00 139.00,41.00
             139.12,34.81 139.95,34.21 146.00,34.00
             146.00,34.00 146.00,77.00 146.00,77.00 Z
           M 167.00,77.00
           C 166.27,72.95 166.05,72.21 166.00,68.00
             166.00,68.00 166.00,54.00 166.00,54.00
             166.00,54.00 166.00,42.00 166.00,42.00
             166.03,40.12 165.96,37.11 167.17,35.57
             167.91,34.65 168.89,34.27 170.05,34.28
             174.00,34.31 173.94,38.09 174.00,41.00
             174.00,41.00 174.00,68.00 174.00,68.00
             174.00,69.99 174.23,73.81 172.98,75.40
             171.60,77.14 168.98,76.93 167.00,77.00 Z
           M 195.59,35.03
           C 202.63,32.22 201.99,39.31 202.00,44.00
             202.00,44.00 202.00,68.00 202.00,68.00
             201.99,70.07 202.15,73.75 200.83,75.43
             199.22,77.45 195.78,77.10 194.60,74.69
             193.93,73.32 194.01,70.54 194.00,69.00
             194.00,69.00 194.00,46.00 194.00,46.00
             194.00,42.13 193.29,38.24 195.59,35.03 Z
           M 181.60,39.03
           C 187.85,36.60 187.97,41.25 188.00,46.00
             188.00,46.00 188.00,65.00 188.00,65.00
             187.99,66.81 188.15,69.94 186.98,71.40
             185.45,73.31 181.85,73.24 180.60,70.69
             180.01,69.48 180.03,67.34 180.00,66.00
             179.90,60.26 178.71,43.05 181.60,39.03 Z
           M 278.59,39.03
           C 284.64,36.62 284.93,41.33 285.00,46.00
             285.00,46.00 285.00,65.00 285.00,65.00
             284.97,66.88 285.04,69.89 283.83,71.43
             282.22,73.45 278.78,73.10 277.60,70.69
             277.01,69.48 277.03,67.34 277.00,66.00
             276.90,60.26 275.71,43.06 278.59,39.03 Z
           M 402.74,39.00
           C 408.87,36.57 408.97,41.42 409.00,46.00
             409.00,46.00 409.00,65.00 409.00,65.00
             408.99,66.81 409.15,69.94 407.98,71.40
             406.45,73.31 402.85,73.24 401.60,70.69
             401.01,69.48 401.03,67.34 401.00,66.00
             400.89,60.04 399.66,43.29 402.74,39.00 Z
           M 127.30,42.13
           C 135.36,40.60 133.07,55.84 133.00,61.00
             132.97,63.11 133.10,66.56 131.26,68.00
             129.27,69.57 125.83,68.97 125.37,64.94
             124.72,62.41 124.76,46.05 125.37,44.15
             126.39,42.35 126.54,42.90 127.30,42.13 Z
           M 252.21,41.96
           C 253.94,42.04 254.73,41.69 255.98,43.45
             257.57,45.68 257.06,58.61 257.00,62.00
             256.95,64.26 257.14,67.27 254.70,68.39
             251.15,70.01 249.45,66.98 249.11,63.98
             248.77,61.06 248.71,46.39 249.74,44.23
             250.58,42.45 250.86,42.79 252.21,41.96 Z
           M 362.28,41.84
           C 363.99,41.72 364.79,41.34 366.26,42.75
             368.84,45.22 368.05,57.19 368.00,61.00
             367.96,63.38 368.16,67.23 365.57,68.41
             362.69,69.72 360.61,67.71 360.22,64.94
             360.22,64.94 360.22,44.23 360.22,44.23
             360.93,42.11 361.77,42.24 362.28,41.84 Z
           M 215.00,65.00
           C 213.02,64.93 210.40,65.14 209.01,63.40
             207.54,61.52 207.47,48.59 209.01,46.74
             209.69,45.90 210.81,45.44 211.90,45.54
             215.12,45.83 214.95,49.64 215.00,52.00
             215.00,52.00 215.00,65.00 215.00,65.00 Z
           M 334.31,46.08
           C 341.45,44.50 340.08,53.32 340.00,58.00
             339.96,59.91 340.09,62.67 338.40,63.97
             336.19,65.67 333.12,64.59 332.31,61.85
             331.12,57.82 331.42,49.08 334.31,46.08 Z
           M 388.00,65.00
           C 388.00,65.00 388.00,53.00 388.00,53.00
             388.02,50.50 387.60,45.85 391.10,45.54
             392.19,45.44 393.31,45.90 393.99,46.74
             395.53,48.59 395.46,61.52 393.99,63.40
             392.60,65.14 389.98,64.93 388.00,65.00 Z
           M 113.31,50.08
           C 120.95,48.39 119.69,59.22 116.69,60.92
             112.01,63.57 108.48,55.09 113.31,50.08 Z
           M 417.31,50.08
           C 424.98,48.38 423.66,59.29 420.69,60.87
             416.07,63.33 412.45,55.11 417.31,50.08 Z" />
</svg>
